<mxfile host="Electron" agent="Mozilla/5.0 (Macintosh; Intel Mac OS X 10_15_7) AppleWebKit/537.36 (KHTML, like Gecko) draw.io/27.0.9 Chrome/134.0.6998.205 Electron/35.4.0 Safari/537.36" version="27.0.9">
  <diagram name="PÃ¡gina-1" id="csSn5JXQ56xnwb9KgIkt">
    <mxGraphModel dx="831" dy="495" grid="1" gridSize="10" guides="1" tooltips="1" connect="1" arrows="1" fold="1" page="1" pageScale="1" pageWidth="827" pageHeight="1169" math="0" shadow="0">
      <root>
        <mxCell id="0" />
        <mxCell id="1" parent="0" />
        <mxCell id="Z2nLBiO_sYQ7mt2MAA_f-1" value="" style="shape=image;aspect=fixed;image=data:image/svg+xml,PD94bWwgdmVyc2lvbj0iMS4wIiBlbmNvZGluZz0iaXNvLTg4NTktMSI/Pg0KPCEtLSBVcGxvYWRlZCB0bzogU1ZHIFJlcG8sIHd3dy5zdmdyZXBvLmNvbSwgR2VuZXJhdG9yOiBTVkcgUmVwbyBNaXhlciBUb29scyAtLT4NCjxzdmcgZmlsbD0iIzAwMDAwMCIgaGVpZ2h0PSI4MDBweCIgd2lkdGg9IjgwMHB4IiB2ZXJzaW9uPSIxLjEiIGlkPSJMYXllcl8xIiB4bWxucz0iaHR0cDovL3d3dy53My5vcmcvMjAwMC9zdmciIHhtbG5zOnhsaW5rPSJodHRwOi8vd3d3LnczLm9yZy8xOTk5L3hsaW5rIiANCgkgdmlld0JveD0iMCAwIDQ4OCA0ODgiIHhtbDpzcGFjZT0icHJlc2VydmUiPg0KPGcgdHJhbnNmb3JtPSJ0cmFuc2xhdGUoMCAtNTQwLjM2KSI+DQoJPGc+DQoJCTxnPg0KCQkJPHBhdGggZD0iTTM1MS4xLDg0Ni45NmwtOTcuMS02Ny45di0xMTYuN2MwLTUuNS00LjUtMTAtMTAtMTBzLTEwLDQuNS0xMCwxMHYxMjJjMCwzLjMsMS42LDYuMyw0LjMsOC4ybDEwMS40LDcwLjkNCgkJCQljMS43LDEuMiwzLjcsMS44LDUuNywxLjh2MGMzLjEsMCw2LjItMS41LDguMi00LjRDMzU2LjcsODU2LjM2LDM1NS42LDg1MC4xNiwzNTEuMSw4NDYuOTZ6Ii8+DQoJCQk8cGF0aCBkPSJNNDE2LjQsNjExLjk2TDQxNi40LDYxMS45NmMtNDYuMi00Ni4yLTEwNy40LTcxLjYtMTcyLjQtNzEuNnMtMTI2LjIsMjUuNC0xNzIuNCw3MS42QzI1LjQsNjU4LjE2LDAsNzE5LjM2LDAsNzg0LjM2DQoJCQkJczI1LjQsMTI2LjIsNzEuNiwxNzIuNGM0Ni4yLDQ2LjIsMTA3LjQsNzEuNiwxNzIuNCw3MS42czEyNi4yLTI1LjQsMTcyLjQtNzEuNnM3MS42LTEwNy40LDcxLjYtMTcyLjRTNDYyLjYsNjU4LjE2LDQxNi40LDYxMS45Ng0KCQkJCXogTTI1NCwxMDA4LjE2TDI1NCwxMDA4LjE2di00MC44YzAtNS41LTQuNS0xMC0xMC0xMHMtMTAsNC41LTEwLDEwdjQwLjhjLTExNS42LTUuMS0yMDguNy05OC4yLTIxMy44LTIxMy44SDYxDQoJCQkJYzUuNSwwLDEwLTQuNSwxMC0xMHMtNC41LTEwLTEwLTEwSDIwLjJjNS4xLTExNS42LDk4LjItMjA4LjcsMjEzLjgtMjEzLjh2NDAuOGMwLDUuNSw0LjUsMTAsMTAsMTBzMTAtNC41LDEwLTEwdi00MC44DQoJCQkJYzExNS42LDUuMSwyMDguNyw5OC4yLDIxMy44LDIxMy44SDQyN2MtNS41LDAtMTAsNC41LTEwLDEwczQuNSwxMCwxMCwxMGg0MC44QzQ2Mi43LDkwOS45NiwzNjkuNiwxMDAzLjA2LDI1NCwxMDA4LjE2eiIvPg0KCQk8L2c+DQoJPC9nPg0KPC9nPg0KPC9zdmc+;" parent="1" vertex="1">
          <mxGeometry x="48" y="24" width="40" height="40" as="geometry" />
        </mxCell>
        <mxCell id="Z2nLBiO_sYQ7mt2MAA_f-2" value="&lt;font color=&quot;#7ea6e0&quot; style=&quot;font-size: 43px;&quot;&gt;{&lt;/font&gt;" style="text;strokeColor=none;align=center;fillColor=none;html=1;verticalAlign=middle;whiteSpace=wrap;rounded=0;" parent="1" vertex="1">
          <mxGeometry x="10" y="10" width="63" height="60" as="geometry" />
        </mxCell>
        <mxCell id="Z2nLBiO_sYQ7mt2MAA_f-3" value="&lt;font color=&quot;#7ea6e0&quot; style=&quot;font-size: 43px;&quot;&gt;}&lt;/font&gt;" style="text;strokeColor=none;align=center;fillColor=none;html=1;verticalAlign=middle;whiteSpace=wrap;rounded=0;" parent="1" vertex="1">
          <mxGeometry x="63" y="10" width="63" height="60" as="geometry" />
        </mxCell>
        <mxCell id="Z2nLBiO_sYQ7mt2MAA_f-4" value="&lt;font style=&quot;font-size: 24px;&quot;&gt;&lt;font color=&quot;#7ea6e0&quot;&gt;Open&lt;/font&gt;Simula&lt;/font&gt;" style="text;strokeColor=none;align=center;fillColor=none;html=1;verticalAlign=middle;whiteSpace=wrap;rounded=0;" parent="1" vertex="1">
          <mxGeometry x="88" y="29" width="170" height="30" as="geometry" />
        </mxCell>
        <mxCell id="Z2nLBiO_sYQ7mt2MAA_f-31" value="" style="group" parent="1" vertex="1" connectable="0">
          <mxGeometry x="215.5" y="165" width="30" height="30" as="geometry" />
        </mxCell>
        <mxCell id="Z2nLBiO_sYQ7mt2MAA_f-26" value="" style="whiteSpace=wrap;html=1;aspect=fixed;" parent="Z2nLBiO_sYQ7mt2MAA_f-31" vertex="1">
          <mxGeometry width="30" height="30" as="geometry" />
        </mxCell>
        <mxCell id="Z2nLBiO_sYQ7mt2MAA_f-27" value="" style="ellipse;whiteSpace=wrap;html=1;aspect=fixed;strokeWidth=0.5;" parent="Z2nLBiO_sYQ7mt2MAA_f-31" vertex="1">
          <mxGeometry x="11.25" y="11.25" width="7.5" height="7.5" as="geometry" />
        </mxCell>
        <mxCell id="Z2nLBiO_sYQ7mt2MAA_f-30" value="" style="endArrow=none;html=1;rounded=0;strokeWidth=0.5;" parent="Z2nLBiO_sYQ7mt2MAA_f-31" edge="1">
          <mxGeometry width="50" height="50" relative="1" as="geometry">
            <mxPoint x="7.5" y="22.5" as="sourcePoint" />
            <mxPoint x="22.5" y="7.5" as="targetPoint" />
          </mxGeometry>
        </mxCell>
        <mxCell id="Z2nLBiO_sYQ7mt2MAA_f-32" value="" style="rounded=0;whiteSpace=wrap;html=1;" parent="1" vertex="1">
          <mxGeometry x="526.5" y="230" width="140" height="130" as="geometry" />
        </mxCell>
        <mxCell id="Z2nLBiO_sYQ7mt2MAA_f-35" value="" style="group" parent="1" vertex="1" connectable="0">
          <mxGeometry x="215.5" y="325" width="30" height="30" as="geometry" />
        </mxCell>
        <mxCell id="Z2nLBiO_sYQ7mt2MAA_f-36" value="" style="whiteSpace=wrap;html=1;aspect=fixed;" parent="Z2nLBiO_sYQ7mt2MAA_f-35" vertex="1">
          <mxGeometry width="30" height="30" as="geometry" />
        </mxCell>
        <mxCell id="Z2nLBiO_sYQ7mt2MAA_f-37" value="" style="ellipse;whiteSpace=wrap;html=1;aspect=fixed;strokeWidth=0.5;" parent="Z2nLBiO_sYQ7mt2MAA_f-35" vertex="1">
          <mxGeometry x="11.25" y="11.25" width="7.5" height="7.5" as="geometry" />
        </mxCell>
        <mxCell id="Z2nLBiO_sYQ7mt2MAA_f-38" value="" style="endArrow=none;html=1;rounded=0;strokeWidth=0.5;" parent="Z2nLBiO_sYQ7mt2MAA_f-35" edge="1">
          <mxGeometry width="50" height="50" relative="1" as="geometry">
            <mxPoint x="7.5" y="22.5" as="sourcePoint" />
            <mxPoint x="22.5" y="7.5" as="targetPoint" />
          </mxGeometry>
        </mxCell>
        <mxCell id="Z2nLBiO_sYQ7mt2MAA_f-40" value="" style="endArrow=none;html=1;rounded=0;strokeWidth=2;entryX=0.487;entryY=1.017;entryDx=0;entryDy=0;exitX=1;exitY=0.5;exitDx=0;exitDy=0;entryPerimeter=0;" parent="1" source="Z2nLBiO_sYQ7mt2MAA_f-67" target="HTOyUL0CCVsaYykYybvM-1" edge="1">
          <mxGeometry width="50" height="50" relative="1" as="geometry">
            <mxPoint x="276.5" y="180" as="sourcePoint" />
            <mxPoint x="336.5" y="180" as="targetPoint" />
          </mxGeometry>
        </mxCell>
        <mxCell id="Z2nLBiO_sYQ7mt2MAA_f-41" value="" style="endArrow=none;html=1;rounded=0;exitX=1;exitY=0.5;exitDx=0;exitDy=0;strokeWidth=2;entryX=0.048;entryY=0.3;entryDx=0;entryDy=0;entryPerimeter=0;" parent="1" target="Z2nLBiO_sYQ7mt2MAA_f-5" edge="1">
          <mxGeometry width="50" height="50" relative="1" as="geometry">
            <mxPoint x="386.5" y="179.60000000000002" as="sourcePoint" />
            <mxPoint x="420.5" y="180" as="targetPoint" />
          </mxGeometry>
        </mxCell>
        <mxCell id="Z2nLBiO_sYQ7mt2MAA_f-44" value="" style="group" parent="1" vertex="1" connectable="0">
          <mxGeometry x="420.5" y="168" width="46" height="40" as="geometry" />
        </mxCell>
        <mxCell id="Z2nLBiO_sYQ7mt2MAA_f-5" value="" style="ellipse;whiteSpace=wrap;html=1;aspect=fixed;" parent="Z2nLBiO_sYQ7mt2MAA_f-44" vertex="1">
          <mxGeometry width="41.29" height="40" as="geometry" />
        </mxCell>
        <mxCell id="Z2nLBiO_sYQ7mt2MAA_f-7" value="" style="rounded=0;whiteSpace=wrap;html=1;strokeColor=none;" parent="Z2nLBiO_sYQ7mt2MAA_f-44" vertex="1">
          <mxGeometry x="18" width="28" height="20" as="geometry" />
        </mxCell>
        <mxCell id="Z2nLBiO_sYQ7mt2MAA_f-8" value="" style="endArrow=none;html=1;rounded=0;exitX=0;exitY=0;exitDx=0;exitDy=0;" parent="Z2nLBiO_sYQ7mt2MAA_f-44" edge="1">
          <mxGeometry width="50" height="50" relative="1" as="geometry">
            <mxPoint x="17.490000000000066" as="sourcePoint" />
            <mxPoint x="46" as="targetPoint" />
          </mxGeometry>
        </mxCell>
        <mxCell id="Z2nLBiO_sYQ7mt2MAA_f-42" value="" style="endArrow=none;html=1;rounded=0;entryX=1;entryY=0;entryDx=0;entryDy=0;" parent="Z2nLBiO_sYQ7mt2MAA_f-44" target="Z2nLBiO_sYQ7mt2MAA_f-7" edge="1">
          <mxGeometry width="50" height="50" relative="1" as="geometry">
            <mxPoint x="46" y="20" as="sourcePoint" />
            <mxPoint x="94.50999999999993" y="50" as="targetPoint" />
          </mxGeometry>
        </mxCell>
        <mxCell id="Z2nLBiO_sYQ7mt2MAA_f-43" value="" style="endArrow=none;html=1;rounded=0;exitX=1;exitY=0.5;exitDx=0;exitDy=0;" parent="Z2nLBiO_sYQ7mt2MAA_f-44" source="Z2nLBiO_sYQ7mt2MAA_f-5" edge="1">
          <mxGeometry width="50" height="50" relative="1" as="geometry">
            <mxPoint x="46" y="40" as="sourcePoint" />
            <mxPoint x="46" y="20" as="targetPoint" />
          </mxGeometry>
        </mxCell>
        <mxCell id="Z2nLBiO_sYQ7mt2MAA_f-45" value="" style="endArrow=none;html=1;rounded=0;exitX=1;exitY=0.5;exitDx=0;exitDy=0;strokeWidth=2;" parent="1" source="Z2nLBiO_sYQ7mt2MAA_f-71" edge="1">
          <mxGeometry width="50" height="50" relative="1" as="geometry">
            <mxPoint x="466.5" y="179.60000000000002" as="sourcePoint" />
            <mxPoint x="606.5" y="180" as="targetPoint" />
          </mxGeometry>
        </mxCell>
        <mxCell id="Z2nLBiO_sYQ7mt2MAA_f-46" value="" style="endArrow=none;html=1;rounded=0;strokeWidth=2;entryX=0.573;entryY=0.002;entryDx=0;entryDy=0;entryPerimeter=0;" parent="1" target="Z2nLBiO_sYQ7mt2MAA_f-32" edge="1">
          <mxGeometry width="50" height="50" relative="1" as="geometry">
            <mxPoint x="606.5" y="180" as="sourcePoint" />
            <mxPoint x="616.5" y="280.4" as="targetPoint" />
          </mxGeometry>
        </mxCell>
        <mxCell id="Z2nLBiO_sYQ7mt2MAA_f-53" value="" style="group" parent="1" vertex="1" connectable="0">
          <mxGeometry x="446.5" y="330" width="46" height="40" as="geometry" />
        </mxCell>
        <mxCell id="Z2nLBiO_sYQ7mt2MAA_f-48" value="" style="ellipse;whiteSpace=wrap;html=1;aspect=fixed;" parent="Z2nLBiO_sYQ7mt2MAA_f-53" vertex="1">
          <mxGeometry x="4.7099999999999795" width="41.29" height="40" as="geometry" />
        </mxCell>
        <mxCell id="Z2nLBiO_sYQ7mt2MAA_f-49" value="" style="rounded=0;whiteSpace=wrap;html=1;strokeColor=none;" parent="Z2nLBiO_sYQ7mt2MAA_f-53" vertex="1">
          <mxGeometry width="28" height="20" as="geometry" />
        </mxCell>
        <mxCell id="Z2nLBiO_sYQ7mt2MAA_f-50" value="" style="endArrow=none;html=1;rounded=0;exitX=0;exitY=0;exitDx=0;exitDy=0;" parent="Z2nLBiO_sYQ7mt2MAA_f-53" edge="1">
          <mxGeometry width="50" height="50" relative="1" as="geometry">
            <mxPoint x="28.509999999999934" as="sourcePoint" />
            <mxPoint as="targetPoint" />
          </mxGeometry>
        </mxCell>
        <mxCell id="Z2nLBiO_sYQ7mt2MAA_f-51" value="" style="endArrow=none;html=1;rounded=0;" parent="Z2nLBiO_sYQ7mt2MAA_f-53" edge="1">
          <mxGeometry width="50" height="50" relative="1" as="geometry">
            <mxPoint y="20" as="sourcePoint" />
            <mxPoint as="targetPoint" />
          </mxGeometry>
        </mxCell>
        <mxCell id="Z2nLBiO_sYQ7mt2MAA_f-52" value="" style="endArrow=none;html=1;rounded=0;" parent="Z2nLBiO_sYQ7mt2MAA_f-53" edge="1">
          <mxGeometry width="50" height="50" relative="1" as="geometry">
            <mxPoint x="5" y="20" as="sourcePoint" />
            <mxPoint y="20" as="targetPoint" />
          </mxGeometry>
        </mxCell>
        <mxCell id="Z2nLBiO_sYQ7mt2MAA_f-54" value="" style="endArrow=none;html=1;rounded=0;strokeWidth=2;" parent="1" edge="1">
          <mxGeometry width="50" height="50" relative="1" as="geometry">
            <mxPoint x="360" y="340" as="sourcePoint" />
            <mxPoint x="446.5" y="340.4" as="targetPoint" />
          </mxGeometry>
        </mxCell>
        <mxCell id="Z2nLBiO_sYQ7mt2MAA_f-55" value="" style="endArrow=none;html=1;rounded=0;exitX=0.898;exitY=0.245;exitDx=0;exitDy=0;strokeWidth=2;exitPerimeter=0;" parent="1" source="Z2nLBiO_sYQ7mt2MAA_f-48" edge="1">
          <mxGeometry width="50" height="50" relative="1" as="geometry">
            <mxPoint x="492.5" y="340" as="sourcePoint" />
            <mxPoint x="526.5" y="340" as="targetPoint" />
          </mxGeometry>
        </mxCell>
        <mxCell id="Z2nLBiO_sYQ7mt2MAA_f-56" value="" style="endArrow=none;html=1;rounded=0;strokeWidth=2;exitX=0.5;exitY=1;exitDx=0;exitDy=0;" parent="1" source="Z2nLBiO_sYQ7mt2MAA_f-58" edge="1">
          <mxGeometry width="50" height="50" relative="1" as="geometry">
            <mxPoint x="306.5" y="280" as="sourcePoint" />
            <mxPoint x="301.5" y="340" as="targetPoint" />
          </mxGeometry>
        </mxCell>
        <mxCell id="Z2nLBiO_sYQ7mt2MAA_f-57" value="" style="group" parent="1" vertex="1" connectable="0">
          <mxGeometry x="286.5" y="245" width="30" height="30" as="geometry" />
        </mxCell>
        <mxCell id="Z2nLBiO_sYQ7mt2MAA_f-58" value="" style="whiteSpace=wrap;html=1;aspect=fixed;" parent="Z2nLBiO_sYQ7mt2MAA_f-57" vertex="1">
          <mxGeometry width="30" height="30" as="geometry" />
        </mxCell>
        <mxCell id="Z2nLBiO_sYQ7mt2MAA_f-59" value="" style="ellipse;whiteSpace=wrap;html=1;aspect=fixed;strokeWidth=0.5;" parent="Z2nLBiO_sYQ7mt2MAA_f-57" vertex="1">
          <mxGeometry x="11.25" y="11.25" width="7.5" height="7.5" as="geometry" />
        </mxCell>
        <mxCell id="Z2nLBiO_sYQ7mt2MAA_f-60" value="" style="endArrow=none;html=1;rounded=0;strokeWidth=0.5;" parent="Z2nLBiO_sYQ7mt2MAA_f-57" edge="1">
          <mxGeometry width="50" height="50" relative="1" as="geometry">
            <mxPoint x="7.5" y="22.5" as="sourcePoint" />
            <mxPoint x="22.5" y="7.5" as="targetPoint" />
          </mxGeometry>
        </mxCell>
        <mxCell id="Z2nLBiO_sYQ7mt2MAA_f-62" value="" style="endArrow=none;html=1;rounded=0;strokeWidth=2;exitX=0.5;exitY=1;exitDx=0;exitDy=0;" parent="1" edge="1">
          <mxGeometry width="50" height="50" relative="1" as="geometry">
            <mxPoint x="301.3" y="180" as="sourcePoint" />
            <mxPoint x="301.3" y="245" as="targetPoint" />
          </mxGeometry>
        </mxCell>
        <mxCell id="Z2nLBiO_sYQ7mt2MAA_f-63" value="" style="endArrow=none;html=1;rounded=0;strokeWidth=2;exitX=0;exitY=0.5;exitDx=0;exitDy=0;" parent="1" source="Z2nLBiO_sYQ7mt2MAA_f-36" edge="1">
          <mxGeometry width="50" height="50" relative="1" as="geometry">
            <mxPoint x="286.5" y="430" as="sourcePoint" />
            <mxPoint x="166.5" y="340" as="targetPoint" />
          </mxGeometry>
        </mxCell>
        <mxCell id="Z2nLBiO_sYQ7mt2MAA_f-64" value="" style="endArrow=none;html=1;rounded=0;strokeWidth=2;exitX=0;exitY=0.5;exitDx=0;exitDy=0;" parent="1" source="Z2nLBiO_sYQ7mt2MAA_f-76" edge="1">
          <mxGeometry width="50" height="50" relative="1" as="geometry">
            <mxPoint x="215.5" y="179.8" as="sourcePoint" />
            <mxPoint x="166.5" y="179.8" as="targetPoint" />
          </mxGeometry>
        </mxCell>
        <mxCell id="Z2nLBiO_sYQ7mt2MAA_f-65" value="" style="endArrow=classic;html=1;rounded=0;" parent="1" edge="1">
          <mxGeometry width="50" height="50" relative="1" as="geometry">
            <mxPoint x="126" y="179.8" as="sourcePoint" />
            <mxPoint x="156" y="179.8" as="targetPoint" />
          </mxGeometry>
        </mxCell>
        <mxCell id="Z2nLBiO_sYQ7mt2MAA_f-66" value="" style="endArrow=classic;html=1;rounded=0;" parent="1" edge="1">
          <mxGeometry width="50" height="50" relative="1" as="geometry">
            <mxPoint x="156" y="339.79999999999995" as="sourcePoint" />
            <mxPoint x="126" y="339.79999999999995" as="targetPoint" />
          </mxGeometry>
        </mxCell>
        <mxCell id="Z2nLBiO_sYQ7mt2MAA_f-68" value="" style="endArrow=none;html=1;rounded=0;strokeWidth=2;entryX=0;entryY=0.5;entryDx=0;entryDy=0;exitX=1;exitY=0.5;exitDx=0;exitDy=0;" parent="1" source="Z2nLBiO_sYQ7mt2MAA_f-26" target="Z2nLBiO_sYQ7mt2MAA_f-67" edge="1">
          <mxGeometry width="50" height="50" relative="1" as="geometry">
            <mxPoint x="245.5" y="180" as="sourcePoint" />
            <mxPoint x="336.5" y="180" as="targetPoint" />
          </mxGeometry>
        </mxCell>
        <mxCell id="Z2nLBiO_sYQ7mt2MAA_f-67" value="" style="ellipse;whiteSpace=wrap;html=1;aspect=fixed;strokeWidth=0.5;fillColor=#dae8fc;strokeColor=#6c8ebf;" parent="1" vertex="1">
          <mxGeometry x="306.5" y="175" width="10" height="10" as="geometry" />
        </mxCell>
        <mxCell id="Z2nLBiO_sYQ7mt2MAA_f-69" value="&lt;font style=&quot;font-size: 10px;&quot;&gt;Mixed Air&lt;/font&gt;&lt;div&gt;&lt;font style=&quot;font-size: 10px;&quot;&gt;( MA )&lt;/font&gt;&lt;/div&gt;" style="text;strokeColor=none;align=center;fillColor=none;html=1;verticalAlign=middle;whiteSpace=wrap;rounded=0;" parent="1" vertex="1">
          <mxGeometry x="277.5" y="140" width="60" height="30" as="geometry" />
        </mxCell>
        <mxCell id="Z2nLBiO_sYQ7mt2MAA_f-72" value="" style="endArrow=none;html=1;rounded=0;exitX=1;exitY=0.5;exitDx=0;exitDy=0;strokeWidth=2;" parent="1" target="Z2nLBiO_sYQ7mt2MAA_f-71" edge="1">
          <mxGeometry width="50" height="50" relative="1" as="geometry">
            <mxPoint x="466.5" y="179.60000000000002" as="sourcePoint" />
            <mxPoint x="606.5" y="180" as="targetPoint" />
          </mxGeometry>
        </mxCell>
        <mxCell id="Z2nLBiO_sYQ7mt2MAA_f-71" value="" style="ellipse;whiteSpace=wrap;html=1;aspect=fixed;strokeWidth=0.5;fillColor=#dae8fc;strokeColor=#6c8ebf;" parent="1" vertex="1">
          <mxGeometry x="561.5" y="175" width="10" height="10" as="geometry" />
        </mxCell>
        <mxCell id="Z2nLBiO_sYQ7mt2MAA_f-73" value="" style="ellipse;whiteSpace=wrap;html=1;aspect=fixed;strokeWidth=0.5;fillColor=#dae8fc;strokeColor=#6c8ebf;" parent="1" vertex="1">
          <mxGeometry x="576.5" y="330" width="10" height="10" as="geometry" />
        </mxCell>
        <mxCell id="Z2nLBiO_sYQ7mt2MAA_f-75" value="" style="endArrow=none;html=1;rounded=0;strokeWidth=2;" parent="1" edge="1">
          <mxGeometry width="50" height="50" relative="1" as="geometry">
            <mxPoint x="246.5" y="340" as="sourcePoint" />
            <mxPoint x="366.5" y="340" as="targetPoint" />
          </mxGeometry>
        </mxCell>
        <mxCell id="Z2nLBiO_sYQ7mt2MAA_f-77" value="" style="endArrow=none;html=1;rounded=0;strokeWidth=2;exitX=0;exitY=0.5;exitDx=0;exitDy=0;" parent="1" target="Z2nLBiO_sYQ7mt2MAA_f-76" edge="1">
          <mxGeometry width="50" height="50" relative="1" as="geometry">
            <mxPoint x="215.5" y="179.8" as="sourcePoint" />
            <mxPoint x="166.5" y="179.8" as="targetPoint" />
          </mxGeometry>
        </mxCell>
        <mxCell id="Z2nLBiO_sYQ7mt2MAA_f-76" value="" style="ellipse;whiteSpace=wrap;html=1;aspect=fixed;strokeWidth=0.5;fillColor=#dae8fc;strokeColor=#6c8ebf;" parent="1" vertex="1">
          <mxGeometry x="172.5" y="175" width="10" height="10" as="geometry" />
        </mxCell>
        <mxCell id="Z2nLBiO_sYQ7mt2MAA_f-78" value="&lt;font style=&quot;font-size: 10px;&quot;&gt;Outdoor Air&lt;/font&gt;&lt;div&gt;&lt;font style=&quot;font-size: 10px;&quot;&gt;( OA )&lt;/font&gt;&lt;/div&gt;" style="text;strokeColor=none;align=center;fillColor=none;html=1;verticalAlign=middle;whiteSpace=wrap;rounded=0;" parent="1" vertex="1">
          <mxGeometry x="147.5" y="140" width="60" height="30" as="geometry" />
        </mxCell>
        <mxCell id="Z2nLBiO_sYQ7mt2MAA_f-79" value="&lt;font style=&quot;font-size: 10px;&quot;&gt;Zone Air&lt;/font&gt;&lt;div&gt;&lt;font style=&quot;font-size: 10px;&quot;&gt;( ZA )&lt;/font&gt;&lt;/div&gt;" style="text;strokeColor=none;align=center;fillColor=none;html=1;verticalAlign=middle;whiteSpace=wrap;rounded=0;" parent="1" vertex="1">
          <mxGeometry x="551.5" y="295" width="60" height="30" as="geometry" />
        </mxCell>
        <mxCell id="Z2nLBiO_sYQ7mt2MAA_f-80" value="&lt;font style=&quot;font-size: 10px;&quot;&gt;Supply Air&lt;/font&gt;&lt;div&gt;&lt;font style=&quot;font-size: 10px;&quot;&gt;( SA )&lt;/font&gt;&lt;/div&gt;" style="text;strokeColor=none;align=center;fillColor=none;html=1;verticalAlign=middle;whiteSpace=wrap;rounded=0;" parent="1" vertex="1">
          <mxGeometry x="536.5" y="138" width="60" height="30" as="geometry" />
        </mxCell>
        <mxCell id="Z2nLBiO_sYQ7mt2MAA_f-82" value="" style="endArrow=classic;html=1;rounded=0;" parent="1" edge="1">
          <mxGeometry width="50" height="50" relative="1" as="geometry">
            <mxPoint x="606.5" y="240" as="sourcePoint" />
            <mxPoint x="606.5" y="265" as="targetPoint" />
          </mxGeometry>
        </mxCell>
        <mxCell id="Z2nLBiO_sYQ7mt2MAA_f-83" value="" style="endArrow=classic;html=1;rounded=0;" parent="1" edge="1">
          <mxGeometry width="50" height="50" relative="1" as="geometry">
            <mxPoint x="561.5" y="339.30999999999995" as="sourcePoint" />
            <mxPoint x="531.5" y="339.30999999999995" as="targetPoint" />
          </mxGeometry>
        </mxCell>
        <mxCell id="Z2nLBiO_sYQ7mt2MAA_f-85" value="&lt;font style=&quot;font-size: 10px;&quot;&gt;&lt;span style=&quot;&quot;&gt;Return&amp;nbsp;&lt;/span&gt;&lt;/font&gt;&lt;div&gt;&lt;font style=&quot;font-size: 10px;&quot;&gt;&lt;span style=&quot;&quot;&gt;Fan&lt;/span&gt;&lt;/font&gt;&lt;/div&gt;" style="text;strokeColor=none;align=center;fillColor=none;html=1;verticalAlign=middle;whiteSpace=wrap;rounded=0;fontStyle=2" parent="1" vertex="1">
          <mxGeometry x="439.5" y="374" width="60" height="30" as="geometry" />
        </mxCell>
        <mxCell id="Z2nLBiO_sYQ7mt2MAA_f-86" value="&lt;span style=&quot;font-size: 10px;&quot;&gt;Supply&lt;/span&gt;&lt;br&gt;&lt;div&gt;&lt;font style=&quot;font-size: 10px;&quot;&gt;&lt;span style=&quot;&quot;&gt;Fan&lt;/span&gt;&lt;/font&gt;&lt;/div&gt;" style="text;strokeColor=none;align=center;fillColor=none;html=1;verticalAlign=middle;whiteSpace=wrap;rounded=0;fontStyle=2" parent="1" vertex="1">
          <mxGeometry x="456.5" y="145" width="60" height="30" as="geometry" />
        </mxCell>
        <mxCell id="Z2nLBiO_sYQ7mt2MAA_f-89" value="&lt;span style=&quot;font-size: 10px;&quot;&gt;Relief Air&lt;/span&gt;&lt;br&gt;&lt;div&gt;&lt;span style=&quot;font-size: 10px;&quot;&gt;Damper&lt;/span&gt;&lt;/div&gt;" style="text;strokeColor=none;align=center;fillColor=none;html=1;verticalAlign=middle;whiteSpace=wrap;rounded=0;fontStyle=2" parent="1" vertex="1">
          <mxGeometry x="200.5" y="360" width="60" height="30" as="geometry" />
        </mxCell>
        <mxCell id="Z2nLBiO_sYQ7mt2MAA_f-90" value="&lt;span style=&quot;font-size: 10px;&quot;&gt;Bypass&lt;/span&gt;&lt;br&gt;&lt;div&gt;&lt;span style=&quot;font-size: 10px;&quot;&gt;Damper&lt;/span&gt;&lt;/div&gt;" style="text;strokeColor=none;align=center;fillColor=none;html=1;verticalAlign=middle;whiteSpace=wrap;rounded=0;fontStyle=2" parent="1" vertex="1">
          <mxGeometry x="316.5" y="245" width="60" height="30" as="geometry" />
        </mxCell>
        <mxCell id="Z2nLBiO_sYQ7mt2MAA_f-91" value="&lt;span style=&quot;font-size: 10px;&quot;&gt;Outdoor Air&lt;/span&gt;&lt;br&gt;&lt;div&gt;&lt;span style=&quot;font-size: 10px;&quot;&gt;Damper&lt;/span&gt;&lt;/div&gt;" style="text;strokeColor=none;align=center;fillColor=none;html=1;verticalAlign=middle;whiteSpace=wrap;rounded=0;fontStyle=2" parent="1" vertex="1">
          <mxGeometry x="207.5" y="130" width="60" height="30" as="geometry" />
        </mxCell>
        <mxCell id="HTOyUL0CCVsaYykYybvM-81" value="" style="edgeStyle=orthogonalEdgeStyle;rounded=0;orthogonalLoop=1;jettySize=auto;html=1;entryX=0;entryY=0.5;entryDx=0;entryDy=0;entryPerimeter=0;endArrow=none;startFill=0;strokeColor=#B3B3B3;" edge="1" parent="1" source="HTOyUL0CCVsaYykYybvM-1" target="HTOyUL0CCVsaYykYybvM-2">
          <mxGeometry relative="1" as="geometry" />
        </mxCell>
        <mxCell id="HTOyUL0CCVsaYykYybvM-1" value="" style="shape=mxgraph.pid.heat_exchangers.heat_exchanger_(coil_tubes);html=1;pointerEvents=1;align=center;verticalLabelPosition=bottom;verticalAlign=top;dashed=0;rotation=90;" vertex="1" parent="1">
          <mxGeometry x="348.25" y="171" width="60" height="20" as="geometry" />
        </mxCell>
        <mxCell id="HTOyUL0CCVsaYykYybvM-2" value="" style="shape=mxgraph.pid.compressors_-_iso.compressor,_vacuum_pump;html=1;pointerEvents=1;align=center;verticalLabelPosition=bottom;verticalAlign=top;dashed=0;rotation=-90;" vertex="1" parent="1">
          <mxGeometry x="364.25" y="100" width="28" height="30" as="geometry" />
        </mxCell>
        <mxCell id="HTOyUL0CCVsaYykYybvM-88" style="edgeStyle=orthogonalEdgeStyle;rounded=0;orthogonalLoop=1;jettySize=auto;html=1;entryX=0.5;entryY=1;entryDx=0;entryDy=0;exitX=0;exitY=0.446;exitDx=0;exitDy=0;exitPerimeter=0;endArrow=none;startFill=0;strokeColor=#B3B3B3;" edge="1" parent="1" source="HTOyUL0CCVsaYykYybvM-77" target="HTOyUL0CCVsaYykYybvM-83">
          <mxGeometry relative="1" as="geometry">
            <Array as="points">
              <mxPoint x="267" y="66" />
              <mxPoint x="267" y="240" />
              <mxPoint x="377" y="240" />
            </Array>
          </mxGeometry>
        </mxCell>
        <mxCell id="HTOyUL0CCVsaYykYybvM-77" value="" style="shape=mxgraph.pid.heat_exchangers.heat_exchanger_(coil_tubes);html=1;pointerEvents=1;align=center;verticalLabelPosition=bottom;verticalAlign=top;dashed=0;rotation=0;" vertex="1" parent="1">
          <mxGeometry x="286.5" y="59" width="63.5" height="16" as="geometry" />
        </mxCell>
        <mxCell id="HTOyUL0CCVsaYykYybvM-82" style="edgeStyle=orthogonalEdgeStyle;rounded=0;orthogonalLoop=1;jettySize=auto;html=1;exitX=1;exitY=0.5;exitDx=0;exitDy=0;exitPerimeter=0;entryX=1;entryY=0.375;entryDx=0;entryDy=0;entryPerimeter=0;endArrow=none;startFill=0;strokeColor=#B3B3B3;" edge="1" parent="1" source="HTOyUL0CCVsaYykYybvM-2" target="HTOyUL0CCVsaYykYybvM-77">
          <mxGeometry relative="1" as="geometry" />
        </mxCell>
        <mxCell id="HTOyUL0CCVsaYykYybvM-83" value="" style="ellipse;whiteSpace=wrap;html=1;aspect=fixed;" vertex="1" parent="1">
          <mxGeometry x="372.25" y="220" width="10" height="10" as="geometry" />
        </mxCell>
        <mxCell id="HTOyUL0CCVsaYykYybvM-84" value="" style="endArrow=none;html=1;rounded=0;exitX=1;exitY=0;exitDx=0;exitDy=0;entryX=0;entryY=1;entryDx=0;entryDy=0;strokeWidth=0.5;" edge="1" parent="1" source="HTOyUL0CCVsaYykYybvM-83" target="HTOyUL0CCVsaYykYybvM-83">
          <mxGeometry width="50" height="50" relative="1" as="geometry">
            <mxPoint x="390" y="230" as="sourcePoint" />
            <mxPoint x="440" y="180" as="targetPoint" />
          </mxGeometry>
        </mxCell>
        <mxCell id="HTOyUL0CCVsaYykYybvM-85" value="" style="endArrow=none;html=1;rounded=0;exitX=1;exitY=1;exitDx=0;exitDy=0;entryX=0;entryY=0;entryDx=0;entryDy=0;strokeWidth=0.5;" edge="1" parent="1" source="HTOyUL0CCVsaYykYybvM-83" target="HTOyUL0CCVsaYykYybvM-83">
          <mxGeometry width="50" height="50" relative="1" as="geometry">
            <mxPoint x="448" y="230" as="sourcePoint" />
            <mxPoint x="440" y="238" as="targetPoint" />
          </mxGeometry>
        </mxCell>
        <mxCell id="HTOyUL0CCVsaYykYybvM-87" value="" style="endArrow=none;html=1;rounded=0;entryX=1;entryY=0.544;entryDx=0;entryDy=0;entryPerimeter=0;exitX=0.5;exitY=0;exitDx=0;exitDy=0;strokeColor=#B3B3B3;" edge="1" parent="1" source="HTOyUL0CCVsaYykYybvM-83" target="HTOyUL0CCVsaYykYybvM-1">
          <mxGeometry width="50" height="50" relative="1" as="geometry">
            <mxPoint x="390" y="230" as="sourcePoint" />
            <mxPoint x="440" y="180" as="targetPoint" />
          </mxGeometry>
        </mxCell>
      </root>
    </mxGraphModel>
  </diagram>
</mxfile>
